Coordinates
version=1
nRows=23
nColumns=30
inDegrees=yes

Units are S.I. units (second, meters, Newtons, ...)
Angles are in degrees.

endheader
time	floatyaw	floatroll	floatpitch	floatx	floaty	floatz	pro_sup_l	deviation_l	flexion_l	cmc_flexion_l	cmc_abduction_l	mp_flexion_l	ip_flexion_l	2mcp_flexion_l	2mcp_abduction_l	2pm_flexion_l	2md_flexion_l	3mcp_flexion_l	3mcp_abduction_l	3pm_flexion_l	3md_flexion_l	4mcp_flexion_l	4mcp_abduction_l	4pm_flexion_l	4md_flexion_l	5mcp_flexion_l	5mcp_abduction_l	5pm_flexion_l	5md_flexion_l
-1.495000	-4.263706	-0.696975	99.509199	-0.103052	-0.193625	-0.017845	88.795976	0.357199	-0.228309	16.885894	6.301154	-21.873535	-34.893572	37.276535	8.364001	46.620628	32.667801	21.625778	4.639650	47.931428	32.344920	10.739872	-4.687698	63.160133	42.457306	5.962611	-8.272796	61.828791	41.887614
-1.485000	-4.263706	-0.696975	99.509199	-0.103041	-0.193632	-0.017854	88.793412	0.351814	-0.234317	16.885007	6.328494	-21.865924	-34.890298	37.272709	8.365894	46.676830	32.693273	21.641529	4.644312	47.948278	32.353254	10.780148	-4.695873	63.148249	42.450292	5.960664	-8.253767	61.864099	41.902077
-1.475000	-4.263706	-0.696975	99.509199	-0.103034	-0.193641	-0.017864	88.787458	0.347252	-0.240203	16.882526	6.350932	-21.860137	-34.886947	37.278408	8.364051	46.732063	32.715666	21.649944	4.651851	47.959787	32.358722	10.808362	-4.697862	63.138993	42.446286	5.965640	-8.241125	61.900267	41.913952
-1.465000	-4.263706	-0.696975	99.509199	-0.103033	-0.193652	-0.017876	88.776193	0.343492	-0.244636	16.877343	6.366977	-21.857636	-34.883882	37.290355	8.359522	46.776523	32.731344	21.649674	4.661010	47.967169	32.362421	10.823432	-4.696862	63.131748	42.445485	5.971316	-8.233639	61.929985	41.920252
-1.455000	-4.263706	-0.696975	99.509199	-0.103035	-0.193664	-0.017889	88.759814	0.340075	-0.246930	16.870116	6.376237	-21.858704	-34.881206	37.302998	8.353790	46.805751	32.739726	21.641852	4.670089	47.973158	32.366224	10.829714	-4.696974	63.124640	42.446750	5.971240	-8.228706	61.947197	41.919396
-1.445000	-4.263706	-0.696975	99.509199	-0.103040	-0.193677	-0.017901	88.740353	0.336290	-0.247573	16.862688	6.378655	-21.862361	-34.878640	37.311554	8.348037	46.821622	32.742982	21.629649	4.677560	47.980740	32.372017	10.833686	-4.700889	63.116434	42.448825	5.962048	-8.223835	61.950162	41.912088
-1.435000	-4.263706	-0.696975	99.509199	-0.103045	-0.193690	-0.017911	88.720605	0.331558	-0.248006	16.856740	6.374185	-21.867026	-34.875710	37.314343	8.342652	46.830163	32.744417	21.616700	4.682781	47.991483	32.380759	10.839973	-4.708626	63.107673	42.451328	5.944964	-8.218051	61.942147	41.901009
-1.425000	-4.263706	-0.696975	99.509199	-0.103048	-0.193702	-0.017917	88.702881	0.325791	-0.249778	16.852533	6.363360	-21.871410	-34.872109	37.313178	8.337238	46.837685	32.746555	21.605510	4.686334	48.004564	32.391902	10.849125	-4.717911	63.100366	42.454853	5.924906	-8.212461	61.929619	41.889548
-1.415000	-4.263706	-0.696975	99.509199	-0.103049	-0.193713	-0.017919	88.688218	0.319474	-0.253570	16.848529	6.348379	-21.875013	-34.867917	37.311739	8.331101	46.847529	32.750026	21.596744	4.689648	48.017330	32.403634	10.858180	-4.725710	63.096620	42.460264	5.908136	-8.209703	61.919097	41.880265
-1.405000	-4.263706	-0.696975	99.509199	-0.103050	-0.193723	-0.017918	88.676343	0.313428	-0.258689	16.842112	6.333711	-21.877998	-34.863537	37.313104	8.323924	46.859009	32.753686	21.589513	4.694112	48.027056	32.413890	10.863151	-4.729859	63.097229	42.467837	5.899894	-8.212577	61.914274	41.873846
-1.395000	-4.263706	-0.696975	99.509199	-0.103052	-0.193729	-0.017917	88.666299	0.308424	-0.263375	16.830967	6.325224	-21.880693	-34.859394	37.318088	8.316199	46.868666	32.755646	21.582245	4.700238	48.032633	32.421462	10.861621	-4.729925	63.101051	42.476843	5.902796	-8.222439	61.914643	41.869015
-1.385000	-4.263706	-0.696975	99.509199	-0.103055	-0.193730	-0.017915	88.657281	0.304920	-0.265782	16.814335	6.327791	-21.883181	-34.855657	37.325305	8.309164	46.872670	32.754428	21.573671	4.707421	48.034950	32.426435	10.854082	-4.727098	63.105340	42.485733	5.916063	-8.238038	61.916142	41.863434
-1.375000	-4.263706	-0.696975	99.509199	-0.103060	-0.193724	-0.017915	88.649248	0.302994	-0.265068	16.793548	6.342482	-21.885198	-34.852141	37.332550	8.304294	46.868835	32.749610	21.563591	4.714398	48.035865	32.429734	10.843712	-4.723448	63.106703	42.492647	5.935588	-8.255376	61.913552	41.855123
-1.365000	-4.263706	-0.696975	99.509199	-0.103064	-0.193713	-0.017917	88.642978	0.302403	-0.261952	16.771630	6.365101	-21.886287	-34.848383	37.338311	8.302673	46.857424	32.741812	21.553179	4.720034	48.036734	32.432237	10.834999	-4.721028	63.102213	42.495964	5.955096	-8.268921	61.903575	41.843625
-1.355000	-4.263706	-0.696975	99.509199	-0.103069	-0.193700	-0.017919	88.639574	0.302664	-0.258414	16.752128	6.387312	-21.886065	-34.843835	37.342501	8.304497	46.840842	32.732309	21.544622	4.723864	48.037652	32.434183	10.831797	-4.721097	63.090416	42.494811	5.968404	-8.273923	61.887051	41.830286
-1.345000	-4.263706	-0.696975	99.509199	-0.103073	-0.193688	-0.017920	88.639688	0.303156	-0.256678	16.737562	6.400166	-21.884482	-34.838099	37.346294	8.308844	46.822765	32.722610	21.540142	4.726061	48.037855	32.435258	10.835489	-4.723591	63.072056	42.489535	5.972033	-8.268864	61.869058	41.817526
-1.335000	-4.263706	-0.696975	99.509199	-0.103077	-0.193681	-0.017918	88.642896	0.303260	-0.258053	16.728207	6.398212	-21.882012	-34.831147	37.351439	8.313809	46.807074	32.714092	21.540887	4.726951	48.036790	32.435195	10.843981	-4.726973	63.050257	42.482036	5.966718	-8.256647	61.856747	41.807597
-1.325000	-4.263706	-0.696975	99.509199	-0.103080	-0.193679	-0.017914	88.647613	0.302518	-0.262237	16.721859	6.381821	-21.879651	-34.823428	37.359451	8.317081	46.796645	32.707641	21.546336	4.726500	48.034957	32.434376	10.852216	-4.728699	63.029898	42.475608	5.956622	-8.243506	61.855976	41.801560
-1.315000	-4.263706	-0.696975	99.509199	-0.103083	-0.193680	-0.017907	88.651626	0.300753	-0.267478	16.714786	6.356413	-21.878679	-34.815781	37.370994	8.316795	46.792272	32.703325	21.554629	4.724154	48.033937	32.433979	10.854308	-4.726384	63.016195	42.474076	5.946388	-8.235862	61.868417	41.799003
-1.305000	-4.263706	-0.696975	99.509199	-0.103085	-0.193682	-0.017896	88.653014	0.298114	-0.271438	16.703340	6.329275	-21.880194	-34.809133	37.385735	8.312305	46.792205	32.700287	21.563592	4.719160	48.035571	32.435529	10.846452	-4.719237	63.012890	42.480358	5.937883	-8.236765	61.890550	41.798509
-1.295000	-4.263706	-0.696975	99.509199	-0.103086	-0.193680	-0.017884	88.651013	0.295041	-0.272266	16.685449	6.305951	-21.884573	-34.804125	37.402668	8.304455	46.792717	32.697033	21.571783	4.711209	48.040801	32.440083	10.829077	-4.708896	63.020784	42.495066	5.928987	-8.244054	61.915129	41.798500
-1.285000	-4.263706	-0.696975	99.509199	-0.103088	-0.193672	-0.017871	88.646489	0.292133	-0.269339	16.661442	6.288186	-21.891135	-34.800859	37.420596	8.295242	46.789681	32.692059	21.578952	4.701000	48.048889	32.447534	10.807046	-4.698946	63.037298	42.515901	5.915547	-8.251392	61.934597	41.797986
-1.275000	-4.263706	-0.696975	99.509199	-0.103089	-0.193659	-0.017857	88.641808	0.289924	-0.263466	16.633927	6.274280	-21.898269	-34.798925	37.438382	8.287046	46.780619	32.684646	21.585756	4.690310	48.057681	32.456543	10.787831	-4.693210	63.057409	42.538308	5.895232	-8.251587	61.944922	41.796911
